PathFileType	4	(X/Y/Z)	C:\Users\Basilio\Documents\Thesis Gigler\squatting_fais\c3dfiles\076\SLS_back_pre4\markers_experimental.trc
DataRate	CameraRate	NumFrames	NumMarkers	Units	OrigDataRate	OrigDataStartFrame	OrigNumFrames
200.000000	200.000000	4	61	mm	200.000000	907	1814
Frame#	Time	FHD			LBHD			RBHD			C7			T10			CLAV			LSHO			LUUPA			LMUPA			LDUPA			LLEP			LMEP			LRAD			LUL			LRFIN			RSHO			RUPA1			RMUPA			RDUPA			RLEP			RMEP			RRAD			RUL			RUFIN			LASI			RASI			USACR			LSACR			RSACR			LTHI1			LTHI2			LTHI3			LTHI4			LLFC			LMFC			LTIB1			LTIB2			LTIB3			LTIB4			LLMAL			LMMAL			LHEE			LMT1			LMT2			LMT5			RTHI			RTHI2			RTHI3			RTHI4			RLFC			RMFC			RTIB1			RTIB2			RTIB3			RTIB4			RLMAL			RMMAL			RHEE			RMT1			RMT2			RMT5			
		X1	Y1	Z1	X2	Y2	Z2	X3	Y3	Z3	X4	Y4	Z4	X5	Y5	Z5	X6	Y6	Z6	X7	Y7	Z7	X8	Y8	Z8	X9	Y9	Z9	X10	Y10	Z10	X11	Y11	Z11	X12	Y12	Z12	X13	Y13	Z13	X14	Y14	Z14	X15	Y15	Z15	X16	Y16	Z16	X17	Y17	Z17	X18	Y18	Z18	X19	Y19	Z19	X20	Y20	Z20	X21	Y21	Z21	X22	Y22	Z22	X23	Y23	Z23	X24	Y24	Z24	X25	Y25	Z25	X26	Y26	Z26	X27	Y27	Z27	X28	Y28	Z28	X29	Y29	Z29	X30	Y30	Z30	X31	Y31	Z31	X32	Y32	Z32	X33	Y33	Z33	X34	Y34	Z34	X35	Y35	Z35	X36	Y36	Z36	X37	Y37	Z37	X38	Y38	Z38	X39	Y39	Z39	X40	Y40	Z40	X41	Y41	Z41	X42	Y42	Z42	X43	Y43	Z43	X44	Y44	Z44	X45	Y45	Z45	X46	Y46	Z46	X47	Y47	Z47	X48	Y48	Z48	X49	Y49	Z49	X50	Y50	Z50	X51	Y51	Z51	X52	Y52	Z52	X53	Y53	Z53	X54	Y54	Z54	X55	Y55	Z55	X56	Y56	Z56	X57	Y57	Z57	X58	Y58	Z58	X59	Y59	Z59	X60	Y60	Z60	X61	Y61	Z61	

908	4.535	-38.12810897827149	1364.7705078125	-1021.67333984375	-187.8495025634766	1310.79541015625	-1113.784790039063	-169.2543487548828	1315.536254882813	-963.3399658203127	-245.3698425292969	1230.088500976563	-1027.309448242188	-433.4830322265626	981.859069824219	-1009.814331054688	-155.3393707275391	1108.256103515625	-1037.591796875	-204.8326721191407	1180.614379882813	-1181.71337890625	-99.57315826416018	1117.052001953125	-1297.073974609375	-56.58594894409181	1124.129638671875	-1273.477294921875	-42.43292236328126	1100.112548828125	-1328.903076171875	-1.179782032966614	1072.699584960938	-1354.759521484375	7.934875488281252	1006.900756835938	-1308.713623046875	251.8398437500001	1070.177368164063	-1341.203857421875	241.6426239013672	1071.791015625	-1406.201538085938	328.9079895019532	1092.463500976563	-1354.098510742188	-179.3345489501953	1175.463012695313	-892.0027465820315	-67.75331878662111	1097.888793945313	-789.0211181640627	-29.94819068908692	1123.63525390625	-807.5664672851565	-1.075836777687073	1077.391845703125	-778.9179687500002	66.34274291992189	1069.02099609375	-776.4297485351565	63.88811111450197	1017.693725585938	-833.781921386719	309.5260009765626	1060.885864257813	-838.119567871094	303.7749938964844	1057.425903320313	-771.7954101562502	384.3487854003907	1075.530151367188	-827.3099365234377	-364.5420227050782	768.862243652344	-1113.439086914063	-369.2941894531251	744.6455688476564	-898.862243652344	-495.9133300781251	883.2949829101565	-1000.124816894531	-516.0432739257814	861.7656860351565	-1029.948120117188	-514.6674194335939	857.1150512695315	-972.5363769531252	-400.574188232422	663.4732055664064	-1186.546997070313	-326.8750000000001	623.4016113281251	-1181.319702148438	-292.1003723144532	653.1492919921876	-1161.359741210938	-315.8083496093751	563.3837890625001	-1171.091430664063	-220.0323333740235	441.7669067382814	-1135.64111328125	-209.7239990234376	456.9266357421876	-1024.341186523438	-222.8701171875001	313.1040649414063	-1038.27490234375	-257.5880126953126	254.7795867919922	-1096.499389648438	-232.4612884521485	257.9511413574219	-1055.594482421875	-281.2905273437501	203.1178588867188	-1014.453308105469	-378.9737243652344	107.2317123413086	-1055.787963867188	-350.9526367187501	120.3666915893555	-974.8536376953127	-441.3685913085939	96.23155212402347	-1006.873718261719	-239.3848114013672	50.86632537841798	-990.4356689453127	-234.5263061523438	50.50856399536134	-1029.767333984375	-259.1780090332032	45.50322341918946	-1079.336669921875	-461.400360107422	517.8161621093751	-838.7739257812502	-424.3042907714845	460.476287841797	-841.8264160156252	-390.9582519531251	460.9488525390626	-851.837341308594	-456.898406982422	385.2219543457032	-859.7269287109377	-463.2491760253907	343.2218933105469	-870.5020751953127	-451.4014587402345	336.7477111816407	-984.3529052734377	-570.1622314453126	275.6396484375001	-906.5056762695315	-657.4586181640626	337.3708801269532	-887.4665527343752	-655.1613159179689	293.2688293457032	-899.0802001953127	-695.4254150390626	279.7070617675782	-942.589294433594	-840.581726074219	327.5310363769532	-922.8359985351565	-813.1983032226565	313.2398376464844	-1003.867248535156	-852.210632324219	389.9169006347657	-962.767517089844	-881.6387329101565	194.7157440185547	-1019.805480957031	-887.6239013671877	180.2901916503907	-975.8440551757815	-914.0655517578127	203.3555297851563	-923.6673583984377	
909	4.54	-37.63371276855469	1363.286987304688	-1021.906005859375	-187.3956298828125	1309.228637695313	-1114.048706054688	-168.8513946533203	1314.172119140625	-963.5110473632815	-245.1108856201172	1229.115356445313	-1027.286743164063	-433.315155029297	980.8402099609377	-1009.808471679688	-154.8120422363282	1106.670166015625	-1037.743530273438	-204.8723144531251	1179.317260742188	-1181.883422851563	-98.83752441406253	1115.833251953125	-1297.299926757813	-56.09403610229494	1122.7138671875	-1273.46630859375	-42.3118019104004	1099.00927734375	-1329.081787109375	-0.6799530386924745	1071.487548828125	-1354.780029296875	8.557140350341799	1005.7138671875	-1308.78662109375	252.6090850830079	1069.2099609375	-1341.1533203125	241.9837799072266	1070.422607421875	-1406.138916015625	329.4887695312501	1091.300170898438	-1354.1044921875	-178.9033355712891	1174.21240234375	-892.2258911132815	-67.32180023193361	1096.685668945313	-789.4010009765627	-29.68073844909669	1122.408569335938	-807.722106933594	-0.7513793110847475	1076.258422851563	-779.065612792969	66.67039489746095	1067.816528320313	-776.5168457031252	64.20296478271486	1016.332702636719	-833.780700683594	309.6925354003907	1059.703125	-838.298278808594	304.2020263671876	1056.085815429688	-771.7935180664065	384.6683349609376	1074.325073242188	-827.3176269531252	-366.2123107910157	766.5161743164064	-1113.816284179688	-369.4955139160157	743.4592285156251	-898.9709472656252	-495.4197692871095	882.5259399414065	-1000.236877441406	-516.8792114257814	861.2718505859377	-1029.574951171875	-514.7106323242189	856.2034301757815	-972.4542236328127	-401.6555480957032	663.1361694335939	-1187.000122070313	-326.9115295410157	622.8483886718751	-1181.333740234375	-292.2001953125001	652.7372436523439	-1161.456176757813	-315.6545410156251	563.0076293945314	-1171.413818359375	-219.6999664306641	441.4676513671876	-1135.9697265625	-209.2775115966797	456.6921997070314	-1024.621948242188	-222.5396423339844	312.9014892578126	-1038.59619140625	-257.3367004394532	254.6160736083985	-1096.9541015625	-232.2574005126954	257.8029174804688	-1055.96484375	-281.1040649414063	202.9691619873047	-1014.766662597656	-378.9204406738282	107.2152557373047	-1056.031127929688	-350.7543945312501	120.345329284668	-975.115905761719	-441.3974609375001	96.23110961914065	-1006.92333984375	-239.6431274414063	50.5582847595215	-990.6253662109377	-234.437728881836	50.42249298095705	-1029.824096679688	-259.1344909667969	45.29714584350587	-1079.371337890625	-461.8324279785157	516.8328247070314	-838.829040527344	-424.7854919433595	459.4326477050782	-841.897155761719	-391.5645446777345	459.6924743652345	-851.990173339844	-457.559783935547	384.1421203613282	-859.9696044921877	-464.1108703613282	342.0336608886719	-870.706481933594	-452.1223449707032	335.8995971679688	-984.6697998046877	-570.7991333007814	274.9336242675782	-906.503356933594	-658.1184082031251	336.7078247070313	-887.5755615234377	-655.9401245117189	292.4657287597657	-899.4295043945315	-696.1574707031251	278.9670410156251	-942.6389160156252	-841.3897094726565	326.9163208007813	-922.9406738281252	-813.9494628906252	312.6543579101563	-1003.941467285156	-852.9079589843752	389.317840576172	-962.8176879882815	-882.5274047851565	194.1568603515626	-1019.953735351563	-888.5154418945315	179.9696960449219	-975.7220458984377	-915.0383911132815	202.8067932128907	-923.9462890625002	
910	4.545	-37.10526657104493	1361.768432617188	-1022.085876464844	-186.8213806152344	1307.841064453125	-1114.123413085938	-168.4098052978516	1312.763793945313	-963.6488037109377	-244.4883270263672	1227.573608398438	-1027.596313476563	-433.2120056152345	979.8310546875002	-1009.810241699219	-154.5804443359375	1105.727783203125	-1037.789306640625	-204.2202301025391	1178.031494140625	-1181.913696289063	-98.60395050048831	1114.608276367188	-1297.273559570313	-55.41663360595705	1121.580200195313	-1273.413696289063	-41.97897720336915	1097.723999023438	-1329.091430664063	-0.1343634426593781	1070.294921875	-1354.799682617188	8.969580650329592	1004.511047363281	-1308.571533203125	253.1593933105469	1068.043701171875	-1341.105590820313	242.5912322998047	1069.467895507813	-1406.272094726563	329.8043212890626	1090.191650390625	-1354.169189453125	-178.5434722900391	1172.905883789063	-892.361511230469	-66.96819305419923	1095.546997070313	-789.2054443359377	-29.25693321228028	1121.162353515625	-807.786804199219	-0.4645821154117585	1074.939331054688	-779.119323730469	67.04318237304689	1066.506591796875	-776.4783325195315	64.51586914062501	1015.090087890625	-833.8530273437502	310.0766906738282	1058.35791015625	-838.437194824219	304.4880981445313	1054.891357421875	-771.8008422851565	385.094451904297	1072.929809570313	-827.0173950195315	-366.5012512207032	765.5151977539064	-1113.828247070313	-369.7229309082032	742.3928222656251	-898.9761962890627	-495.607879638672	881.6687011718752	-1000.178466796875	-517.0325927734376	860.4768676757815	-1029.545776367188	-514.7211303710939	855.3606567382815	-972.4150390625002	-401.0444946289064	662.3159179687501	-1186.744873046875	-326.2390747070313	622.1375122070314	-1181.232421875	-292.1413574218751	652.3866577148439	-1161.488525390625	-316.2620849609376	562.9631958007814	-1172.189086914063	-219.1253204345704	441.2108154296876	-1136.42431640625	-208.8175354003907	456.4481506347657	-1024.993041992188	-222.1779937744141	312.6089782714844	-1039.0361328125	-257.2644653320313	254.4272918701172	-1097.359497070313	-232.1289062500001	257.6123352050782	-1056.345458984375	-280.9061279296876	202.7774810791016	-1015.131286621094	-378.8663330078126	107.1279220581055	-1056.30419921875	-350.6053466796876	120.3671035766602	-975.3883056640627	-441.3480224609376	96.24684143066409	-1006.9912109375	-239.6058654785157	50.58301925659181	-990.7053833007815	-234.6195983886719	50.40243530273439	-1029.930053710938	-259.3342895507813	45.30833435058594	-1079.573608398438	-462.3117675781251	515.7372436523439	-838.909851074219	-425.3923339843751	458.2633666992189	-841.9790649414065	-392.1127929687501	458.6597290039064	-852.0091552734377	-458.2442626953126	383.1156311035157	-860.0984497070315	-464.758026123047	341.1348571777344	-870.7412109375002	-453.0341186523439	334.8104553222657	-984.8018798828127	-571.6850585937501	273.9831848144532	-906.6530761718752	-658.8450317382814	335.7954101562501	-887.7290649414065	-656.6431274414064	291.7339172363282	-899.523376464844	-696.9909057617189	278.1550292968751	-942.873474121094	-842.087585449219	326.3690490722657	-923.028747558594	-814.6596679687502	311.8665771484376	-1003.946716308594	-853.547302246094	388.7777709960939	-962.834411621094	-883.339050292969	193.6619873046876	-1020.139770507813	-889.434509277344	179.3985443115235	-975.9566040039065	-915.9625244140627	202.1928100585938	-924.2093505859377	
911	4.55	-36.74639511108399	1360.463745117188	-1022.252197265625	-185.7510986328125	1307.224975585938	-1114.710571289063	-167.9035797119141	1311.434692382813	-963.797790527344	-244.3764953613282	1226.470703125	-1027.60693359375	-433.1188049316407	978.8177490234377	-1009.813659667969	-154.2275695800782	1104.547607421875	-1037.92529296875	-204.0062255859376	1176.780639648438	-1182.078369140625	-98.20906066894534	1113.330932617188	-1297.32861328125	-55.26357269287111	1120.37451171875	-1273.555908203125	-41.4112892150879	1096.51318359375	-1329.152954101563	0.2154825627803803	1069.056030273438	-1354.751953125	9.440907478332521	1003.206237792969	-1308.785034179688	253.2552185058594	1066.543701171875	-1341.355834960938	243.0626068115235	1068.184204101563	-1406.287353515625	330.6675720214844	1088.925903320313	-1353.954956054688	-178.0694274902344	1171.718383789063	-892.5193481445315	-66.62190246582033	1094.286865234375	-789.2764282226565	-28.95184516906739	1119.949096679688	-807.8626098632815	-0.06454559415578844	1073.68408203125	-779.2176513671877	67.43394470214845	1065.411010742188	-776.600036621094	64.87770080566408	1013.824401855469	-833.9533691406252	310.4846496582032	1057.028930664063	-838.139343261719	304.7516479492188	1053.488647460938	-771.858825683594	385.3160095214845	1071.770263671875	-827.3435668945315	-366.5581359863282	764.4920654296876	-1113.724243164063	-369.9816284179688	741.3578491210939	-898.9411621093752	-495.7160949707032	880.6895141601565	-1000.107788085938	-517.0692749023439	859.4143676757815	-1029.529052734375	-514.8292236328126	854.3867797851565	-972.4213867187502	-401.3069458007814	661.6591796875001	-1186.893676757813	-326.3415222167969	621.6751708984376	-1181.457763671875	-292.2461242675782	651.9639282226564	-1161.577392578125	-315.3689880371094	562.1336059570314	-1172.157836914063	-218.8122863769532	441.0282592773439	-1136.92138671875	-208.3637847900391	456.1322631835939	-1025.577270507813	-221.8280639648438	312.2689514160157	-1039.671997070313	-257.2992553710938	254.3280334472657	-1097.742065429688	-231.9916229248047	257.4243164062501	-1056.838134765625	-280.7051086425782	202.5988006591797	-1015.585510253906	-378.9008483886719	107.0363006591797	-1056.515014648438	-350.4760742187501	120.3993453979492	-975.6440429687502	-441.359344482422	96.31255340576175	-1007.032043457031	-239.5871887207032	50.71565246582033	-990.7542114257815	-234.6800384521485	50.31908798217775	-1030.056640625	-259.2988891601563	45.16271591186524	-1079.6552734375	-462.8652954101564	514.8309936523439	-838.9937744140627	-425.9123535156251	457.2078857421876	-842.0240478515627	-392.7239685058595	457.7366027832032	-851.816101074219	-458.9443969726564	382.0545043945313	-860.3016357421877	-465.6219787597657	340.1369018554688	-870.9482421875002	-453.612762451172	333.8324890136719	-984.9954833984377	-572.7043457031251	272.6814575195313	-907.1316528320315	-659.5579833984376	334.9930725097657	-887.9539184570315	-657.5106201171876	290.7567138671876	-899.5266113281252	-697.8799438476564	277.5401000976563	-943.0603637695315	-842.8981933593752	325.6341247558594	-923.1961059570315	-816.2573852539065	311.6365051269532	-1004.440063476563	-854.353210449219	388.0612792968751	-962.8820800781252	-884.1389770507815	193.0838317871094	-1020.426208496094	-890.0245361328127	178.7779693603516	-975.837097167969	-916.7708129882815	201.6214141845704	-924.3767089843752	
